<svg width="212" height="59" viewBox="0 0 212 59" fill="none" xmlns="http://www.w3.org/2000/svg">
<path d="M32.9232 23.5129L29.0093 27.1501L25.0954 23.5129H21.7978L22.8682 24.4978L29.0093 30.1493L35.1504 24.4978L36.2208 23.5129H32.9232Z" fill="#00ABB1"/>
<path d="M35.7344 25.4042L29.0094 31.6377L22.2952 25.4042L20.1329 25.3706V36.8752H22.2952V28.7391L29.0094 34.9167L35.7344 28.7391V36.8752H37.8859V25.3706L35.7344 25.4042Z" fill="#00ABB1"/>
<path d="M29.0094 4.63317C29.0094 2.07039 26.9983 0 24.5332 0C22.0682 0 20.0572 2.08158 20.0572 4.63317C20.0572 7.18477 22.0682 9.26631 24.5332 9.26631C26.9983 9.26631 29.0094 7.18477 29.0094 4.63317Z" fill="#00ABB1"/>
<path d="M24.5336 16.765C25.9727 16.765 27.1393 15.5574 27.1393 14.0679C27.1393 12.5783 25.9727 11.3708 24.5336 11.3708C23.0945 11.3708 21.9279 12.5783 21.9279 14.0679C21.9279 15.5574 23.0945 16.765 24.5336 16.765Z" fill="#00ABB1"/>
<path d="M24.5335 22.3376C25.465 22.3376 26.2201 21.556 26.2201 20.5918C26.2201 19.6276 25.465 18.8459 24.5335 18.8459C23.602 18.8459 22.8468 19.6276 22.8468 20.5918C22.8468 21.556 23.602 22.3376 24.5335 22.3376Z" fill="#00ABB1"/>
<path d="M37.9727 54.3668C37.9727 56.9296 35.9617 59 33.4966 59C31.0315 59 29.0205 56.9184 29.0205 54.3668C29.0205 51.8152 31.0315 49.7336 33.4966 49.7336C35.9617 49.7336 37.9727 51.8152 37.9727 54.3668Z" fill="#00ABB1"/>
<path d="M36.1022 44.9441C36.1022 46.4326 34.9345 47.6412 33.4965 47.6412C32.0586 47.6412 30.8909 46.4326 30.8909 44.9441C30.8909 43.4557 32.0586 42.247 33.4965 42.247C34.9345 42.247 36.1022 43.4557 36.1022 44.9441Z" fill="#00ABB1"/>
<path d="M33.4964 40.1543C34.4279 40.1543 35.183 39.3727 35.183 38.4085C35.183 37.4443 34.4279 36.6627 33.4964 36.6627C32.5649 36.6627 31.8098 37.4443 31.8098 38.4085C31.8098 39.3727 32.5649 40.1543 33.4964 40.1543Z" fill="#00ABB1"/>
<path d="M12.0241 11.9189C10.2725 10.106 7.43983 10.106 5.68831 11.9189C3.93679 13.7319 3.93679 16.664 5.68831 18.477C7.43983 20.29 10.2725 20.29 12.0241 18.477C13.7756 16.664 13.7756 13.7319 12.0241 11.9189Z" fill="#00ABB1"/>
<path d="M17.1377 19.9541C16.1214 18.9022 14.4672 18.9022 13.4509 19.9541C12.4346 21.0061 12.4346 22.7183 13.4509 23.7703C14.4672 24.8223 16.1214 24.8223 17.1377 23.7703C18.154 22.7183 18.154 21.0061 17.1377 19.9541Z" fill="#00ABB1"/>
<path d="M52.3412 40.5237C54.0927 42.3366 54.0927 45.2688 52.3412 47.0817C50.5897 48.8947 47.757 48.8947 46.0055 47.0817C44.254 45.2688 44.254 42.3366 46.0055 40.5237C47.757 38.7107 50.5897 38.7107 52.3412 40.5237Z" fill="#00ABB1"/>
<path d="M44.5676 35.2301C45.5839 36.2821 45.5839 37.9944 44.5676 39.0463C43.5513 40.0983 41.8971 40.0983 40.8808 39.0463C39.8645 37.9944 39.8645 36.2821 40.8808 35.2301C41.8971 34.1782 43.5513 34.1782 44.5676 35.2301Z" fill="#00ABB1"/>
<path d="M4.9856 29.5005C2.50969 29.5005 0.50948 31.582 0.50948 34.1336C0.50948 36.6852 2.5205 38.7668 4.9856 38.7668C7.45069 38.7668 9.46168 36.6852 9.46168 34.1336C9.46168 31.582 7.45069 29.5005 4.9856 29.5005Z" fill="#00ABB1"/>
<path d="M14.1 36.8416C15.5391 36.8416 16.7057 35.6341 16.7057 34.1445C16.7057 32.655 15.5391 31.4474 14.1 31.4474C12.661 31.4474 11.4944 32.655 11.4944 34.1445C11.4944 35.6341 12.661 36.8416 14.1 36.8416Z" fill="#00ABB1"/>
<path d="M53.0333 20.2227C55.5092 20.2227 57.5093 22.3042 57.5093 24.8558C57.5093 27.4074 55.4984 29.489 53.0333 29.489C50.5682 29.489 48.5571 27.4074 48.5571 24.8558C48.5571 22.3042 50.5682 20.2227 53.0333 20.2227Z" fill="#00ABB1"/>
<path d="M43.9295 22.1694C45.3675 22.1694 46.5352 23.378 46.5352 24.8665C46.5352 26.3549 45.3675 27.5635 43.9295 27.5635C42.4916 27.5635 41.3239 26.3549 41.3239 24.8665C41.3239 23.378 42.4916 22.1694 43.9295 22.1694Z" fill="#00ABB1"/>
<path d="M12.0244 47.0826C10.2728 48.8956 10.2728 51.8277 12.0244 53.6406C13.7759 55.4536 16.6086 55.4536 18.3601 53.6406C20.1116 51.8277 20.1116 48.8956 18.3601 47.0826C16.6086 45.2696 13.7759 45.2696 12.0244 47.0826Z" fill="#00ABB1"/>
<path d="M19.7979 41.7889C18.7816 42.8409 18.7816 44.5531 19.7979 45.6051C20.8142 46.6571 22.4684 46.6571 23.4847 45.6051C24.501 44.5531 24.501 42.8409 23.4847 41.7889C22.4684 40.7369 20.8142 40.7369 19.7979 41.7889Z" fill="#00ABB1"/>
<path d="M26.1014 40.8261C27.0329 40.8261 27.788 40.0444 27.788 39.0802C27.788 38.116 27.0329 37.3344 26.1014 37.3344C25.1698 37.3344 24.4147 38.116 24.4147 39.0802C24.4147 40.0444 25.1698 40.8261 26.1014 40.8261Z" fill="#00ABB1"/>
<path d="M39.6591 5.36107C41.4107 3.5481 44.2433 3.5481 45.9949 5.36107C47.7464 7.17405 47.7464 10.1061 45.9949 11.9191C44.2433 13.7321 41.4107 13.7321 39.6591 11.9191C37.9076 10.1061 37.9076 7.17405 39.6591 5.36107Z" fill="#00ABB1"/>
<path d="M36.3939 18.0068C37.833 18.0068 38.9996 16.7993 38.9996 15.3097C38.9996 13.8202 37.833 12.6127 36.3939 12.6127C34.9548 12.6127 33.7882 13.8202 33.7882 15.3097C33.7882 16.7993 34.9548 18.0068 36.3939 18.0068Z" fill="#00ABB1"/>
<path d="M31.9286 21.667C32.8601 21.667 33.6153 20.8853 33.6153 19.9212C33.6153 18.957 32.8601 18.1753 31.9286 18.1753C30.9971 18.1753 30.242 18.957 30.242 19.9212C30.242 20.8853 30.9971 21.667 31.9286 21.667Z" fill="#00ABB1"/>
<path d="M83.9776 40.9726V22.8102H78.4356V40.9726H72.5095V18.0364H96.79C97.2747 18.0364 97.7868 18.1461 98.3356 18.3656C98.8843 18.5851 99.3781 18.8686 99.8262 19.2253C100.274 19.5819 100.64 19.9935 100.933 20.4507C101.225 20.908 101.372 21.3835 101.372 21.8682V40.9817H95.4457V24.2734C95.4457 23.7613 95.3177 23.4046 95.0616 23.1851C94.8055 22.9656 94.5312 22.8468 94.2202 22.8193H89.9037V40.9817H83.9776V40.9726Z" fill="#00ABB1"/>
<path d="M105.844 40.0216C105.844 39.9668 105.844 39.8662 105.862 39.7199C105.871 39.5644 105.88 39.4821 105.88 39.4546L113.032 21.1002C113.416 20.1308 114.065 19.3718 114.998 18.8231C115.931 18.2744 116.983 18 118.153 18C118.665 18 119.178 18.0823 119.699 18.2469C120.22 18.4115 120.714 18.631 121.171 18.9145C121.629 19.198 122.031 19.5272 122.378 19.9113C122.726 20.2954 122.973 20.6887 123.128 21.1002L130.81 40.9819H124.5L118.08 24.0084L113.489 36.2081H118.995L120.833 40.991H106.649C106.237 40.991 106.009 40.8996 105.945 40.7258C105.881 40.552 105.853 40.3143 105.853 40.0399L105.844 40.0216Z" fill="#00ABB1"/>
<path d="M137.084 22.8193H130.509V18.0364H149.586V22.8193H143.01V40.9817H137.084V22.8193Z" fill="#00ABB1"/>
<path d="M160.175 40.9726H154.249V18.0364H170.692C171.177 18.0364 171.689 18.1461 172.238 18.3656C172.787 18.5851 173.281 18.8686 173.729 19.2253C174.177 19.5819 174.543 19.9935 174.835 20.4507C175.128 20.908 175.274 21.3835 175.274 21.8682V28.0595C175.274 28.5442 175.128 29.0198 174.835 29.477C174.543 29.9343 174.168 30.3458 173.729 30.7025C173.281 31.0591 172.787 31.3427 172.238 31.5621C171.689 31.7816 171.177 31.8914 170.692 31.8914L175.32 40.9908H168.973L161.94 27.1176H168.132C168.434 27.0901 168.717 26.9712 168.973 26.7518C169.229 26.5323 169.357 26.1756 169.357 25.6635V24.2917C169.357 23.7796 169.229 23.4229 168.973 23.2034C168.717 22.9839 168.443 22.865 168.132 22.8376H160.175V41V40.9726Z" fill="#00ABB1"/>
<path d="M179.938 18.0364H185.864V40.9726H179.938V18.0364Z" fill="#00ABB1"/>
<path d="M190.144 40.9726L197.213 29.5045L190.144 18.0364H196.839L200.625 24.0722L204.411 18.0364H211.105L203.99 29.5045L211.105 40.9726H204.411L200.625 34.9733L196.839 40.9726H190.144Z" fill="#00ABB1"/>
</svg>
