<svg width="44" height="44" viewBox="0 0 44 44" fill="none" xmlns="http://www.w3.org/2000/svg">
<path d="M24.5517 17.2061L21.5871 19.8676L18.6225 17.2061H16.1248L16.9355 17.9267L21.5871 22.0624L26.2387 17.9267L27.0494 17.2061H24.5517Z" fill="white"/>
<path d="M26.6809 18.59L21.5871 23.1515L16.5015 18.59L14.8636 18.5654V26.9841H16.5015V21.0304L21.5871 25.551L26.6809 21.0304V26.9841H28.3106V18.5654L26.6809 18.59Z" fill="white"/>
<path d="M21.5872 3.39043C21.5872 1.51505 20.064 0 18.1968 0C16.3296 0 14.8064 1.52324 14.8064 3.39043C14.8064 5.25761 16.3296 6.78083 18.1968 6.78083C20.064 6.78083 21.5872 5.25761 21.5872 3.39043Z" fill="white"/>
<path d="M18.197 12.2681C19.2871 12.2681 20.1707 11.3845 20.1707 10.2945C20.1707 9.20444 19.2871 8.3208 18.197 8.3208C17.107 8.3208 16.2234 9.20444 16.2234 10.2945C16.2234 11.3845 17.107 12.2681 18.197 12.2681Z" fill="white"/>
<path d="M18.1969 16.3461C18.9025 16.3461 19.4745 15.7741 19.4745 15.0686C19.4745 14.363 18.9025 13.791 18.1969 13.791C17.4914 13.791 16.9194 14.363 16.9194 15.0686C16.9194 15.7741 17.4914 16.3461 18.1969 16.3461Z" fill="white"/>
<path d="M28.3764 39.784C28.3764 41.6594 26.8532 43.1744 24.986 43.1744C23.1188 43.1744 21.5956 41.6512 21.5956 39.784C21.5956 37.9168 23.1188 36.3936 24.986 36.3936C26.8532 36.3936 28.3764 37.9168 28.3764 39.784Z" fill="white"/>
<path d="M26.9596 32.8887C26.9596 33.9779 26.0751 34.8623 24.9859 34.8623C23.8967 34.8623 23.0123 33.9779 23.0123 32.8887C23.0123 31.7995 23.8967 30.915 24.9859 30.915C26.0751 30.915 26.9596 31.7995 26.9596 32.8887Z" fill="white"/>
<path d="M24.9858 29.3837C25.6914 29.3837 26.2634 28.8117 26.2634 28.1062C26.2634 27.4006 25.6914 26.8286 24.9858 26.8286C24.2803 26.8286 23.7083 27.4006 23.7083 28.1062C23.7083 28.8117 24.2803 29.3837 24.9858 29.3837Z" fill="white"/>
<path d="M8.72174 8.72206C7.39505 7.39538 5.24942 7.39538 3.92273 8.72206C2.59605 10.0487 2.59605 12.1944 3.92273 13.5211C5.24942 14.8478 7.39505 14.8478 8.72174 13.5211C10.0484 12.1944 10.0484 10.0487 8.72174 8.72206Z" fill="white"/>
<path d="M12.595 14.6018C11.8252 13.832 10.5723 13.832 9.80246 14.6018C9.03265 15.3716 9.03265 16.6245 9.80246 17.3943C10.5723 18.1641 11.8252 18.1641 12.595 17.3943C13.3649 16.6245 13.3649 15.3716 12.595 14.6018Z" fill="white"/>
<path d="M39.2599 29.6542C40.5866 30.9809 40.5866 33.1265 39.2599 34.4532C37.9332 35.7799 35.7876 35.7799 34.4609 34.4532C33.1342 33.1265 33.1342 30.9809 34.4609 29.6542C35.7876 28.3275 37.9332 28.3275 39.2599 29.6542Z" fill="white"/>
<path d="M33.3718 25.7805C34.1416 26.5503 34.1416 27.8033 33.3718 28.5731C32.602 29.3429 31.349 29.3429 30.5792 28.5731C29.8094 27.8033 29.8094 26.5503 30.5792 25.7805C31.349 25.0107 32.602 25.0107 33.3718 25.7805Z" fill="white"/>
<path d="M3.39043 21.5874C1.51505 21.5874 0 23.1106 0 24.9778C0 26.845 1.52324 28.3682 3.39043 28.3682C5.25761 28.3682 6.78083 26.845 6.78083 24.9778C6.78083 23.1106 5.25761 21.5874 3.39043 21.5874Z" fill="white"/>
<path d="M10.2941 26.9595C11.3842 26.9595 12.2678 26.0759 12.2678 24.9859C12.2678 23.8958 11.3842 23.0122 10.2941 23.0122C9.20412 23.0122 8.32049 23.8958 8.32049 24.9859C8.32049 26.0759 9.20412 26.9595 10.2941 26.9595Z" fill="white"/>
<path d="M39.7841 14.7983C41.6595 14.7983 43.1745 16.3216 43.1745 18.1887C43.1745 20.0559 41.6513 21.5792 39.7841 21.5792C37.9169 21.5792 36.3937 20.0559 36.3937 18.1887C36.3937 16.3216 37.9169 14.7983 39.7841 14.7983Z" fill="white"/>
<path d="M32.8885 16.2231C33.9777 16.2231 34.8621 17.1076 34.8621 18.1968C34.8621 19.286 33.9777 20.1704 32.8885 20.1704C31.7993 20.1704 30.9148 19.286 30.9148 18.1968C30.9148 17.1076 31.7993 16.2231 32.8885 16.2231Z" fill="white"/>
<path d="M8.72193 34.4535C7.39524 35.7802 7.39524 37.9258 8.72193 39.2525C10.0486 40.5792 12.1942 40.5792 13.5209 39.2525C14.8476 37.9258 14.8476 35.7802 13.5209 34.4535C12.1942 33.1268 10.0486 33.1268 8.72193 34.4535Z" fill="white"/>
<path d="M14.61 30.5798C13.8402 31.3496 13.8402 32.6026 14.61 33.3724C15.3798 34.1422 16.6328 34.1422 17.4026 33.3724C18.1724 32.6026 18.1724 31.3496 17.4026 30.5798C16.6328 29.81 15.3798 29.81 14.61 30.5798Z" fill="white"/>
<path d="M19.3845 29.8754C20.0901 29.8754 20.662 29.3034 20.662 28.5979C20.662 27.8923 20.0901 27.3203 19.3845 27.3203C18.6789 27.3203 18.1069 27.8923 18.1069 28.5979C18.1069 29.3034 18.6789 29.8754 19.3845 29.8754Z" fill="white"/>
<path d="M29.6538 3.92324C30.9805 2.59655 33.1261 2.59655 34.4528 3.92324C35.7795 5.24992 35.7795 7.39553 34.4528 8.72221C33.1261 10.0489 30.9805 10.0489 29.6538 8.72221C28.3271 7.39553 28.3271 5.24992 29.6538 3.92324Z" fill="white"/>
<path d="M27.1805 13.1768C28.2706 13.1768 29.1542 12.2931 29.1542 11.2031C29.1542 10.1131 28.2706 9.22949 27.1805 9.22949C26.0905 9.22949 25.2069 10.1131 25.2069 11.2031C25.2069 12.2931 26.0905 13.1768 27.1805 13.1768Z" fill="white"/>
<path d="M23.7983 15.8549C24.5039 15.8549 25.0759 15.2829 25.0759 14.5774C25.0759 13.8718 24.5039 13.2998 23.7983 13.2998C23.0927 13.2998 22.5208 13.8718 22.5208 14.5774C22.5208 15.2829 23.0927 15.8549 23.7983 15.8549Z" fill="white"/>
</svg>
