<svg width="55" height="59" viewBox="0 0 55 59" fill="none" xmlns="http://www.w3.org/2000/svg">
<path d="M30.7185 23.5129L27.0093 27.15L23.3001 23.5129H20.175L21.1894 24.4977L27.0093 30.1493L32.8293 24.4977L33.8437 23.5129H30.7185Z" fill="#777777"/>
<path d="M33.3827 25.4041L27.0094 31.6377L20.6464 25.4041L18.5971 25.3706V36.8751H20.6464V28.7391L27.0094 34.9167L33.3827 28.7391V36.8751H35.4217V25.3706L33.3827 25.4041Z" fill="#777777"/>
<path d="M27.0094 4.63317C27.0094 2.07039 25.1035 0 22.7674 0C20.4312 0 18.5254 2.08158 18.5254 4.63317C18.5254 7.18477 20.4312 9.26631 22.7674 9.26631C25.1035 9.26631 27.0094 7.18477 27.0094 4.63317Z" fill="#777777"/>
<path d="M22.7677 16.765C24.1315 16.765 25.2371 15.5574 25.2371 14.0679C25.2371 12.5783 24.1315 11.3708 22.7677 11.3708C21.4039 11.3708 20.2983 12.5783 20.2983 14.0679C20.2983 15.5574 21.4039 16.765 22.7677 16.765Z" fill="#777777"/>
<path d="M22.7676 22.3376C23.6504 22.3376 24.366 21.556 24.366 20.5918C24.366 19.6276 23.6504 18.846 22.7676 18.846C21.8848 18.846 21.1691 19.6276 21.1691 20.5918C21.1691 21.556 21.8848 22.3376 22.7676 22.3376Z" fill="#777777"/>
<path d="M35.504 54.3668C35.504 56.9296 33.5981 59 31.2619 59C28.9258 59 27.02 56.9184 27.02 54.3668C27.02 51.8152 28.9258 49.7337 31.2619 49.7337C33.5981 49.7337 35.504 51.8152 35.504 54.3668Z" fill="#777777"/>
<path d="M33.7312 44.9441C33.7312 46.4326 32.6246 47.6412 31.2619 47.6412C29.8991 47.6412 28.7925 46.4326 28.7925 44.9441C28.7925 43.4557 29.8991 42.247 31.2619 42.247C32.6246 42.247 33.7312 43.4557 33.7312 44.9441Z" fill="#777777"/>
<path d="M31.2617 40.1544C32.1445 40.1544 32.8602 39.3727 32.8602 38.4085C32.8602 37.4443 32.1445 36.6627 31.2617 36.6627C30.3789 36.6627 29.6633 37.4443 29.6633 38.4085C29.6633 39.3727 30.3789 40.1544 31.2617 40.1544Z" fill="#777777"/>
<path d="M10.9124 11.9189C9.25246 10.1059 6.56789 10.1059 4.90798 11.9189C3.24806 13.7319 3.24806 16.664 4.90798 18.477C6.56789 20.29 9.25246 20.29 10.9124 18.477C12.5723 16.664 12.5723 13.7319 10.9124 11.9189Z" fill="#777777"/>
<path d="M15.7586 19.9542C14.7954 18.9022 13.2277 18.9022 12.2646 19.9542C11.3014 21.0061 11.3014 22.7184 12.2646 23.7703C13.2277 24.8223 14.7954 24.8223 15.7586 23.7703C16.7218 22.7184 16.7218 21.0061 15.7586 19.9542Z" fill="#777777"/>
<path d="M49.121 40.5236C50.7809 42.3366 50.7809 45.2687 49.121 47.0817C47.4611 48.8947 44.7766 48.8947 43.1166 47.0817C41.4567 45.2687 41.4567 42.3366 43.1166 40.5236C44.7766 38.7107 47.4611 38.7107 49.121 40.5236Z" fill="#777777"/>
<path d="M41.754 35.2301C42.7171 36.2821 42.7171 37.9944 41.754 39.0463C40.7908 40.0983 39.2231 40.0983 38.2599 39.0463C37.2968 37.9944 37.2968 36.2821 38.2599 35.2301C39.2231 34.1782 40.7908 34.1782 41.754 35.2301Z" fill="#777777"/>
<path d="M4.24202 29.5005C1.8956 29.5005 0 31.582 0 34.1336C0 36.6852 1.90584 38.7668 4.24202 38.7668C6.5782 38.7668 8.48401 36.6852 8.48401 34.1336C8.48401 31.582 6.5782 29.5005 4.24202 29.5005Z" fill="#777777"/>
<path d="M12.8798 36.8416C14.2436 36.8416 15.3492 35.6341 15.3492 34.1445C15.3492 32.655 14.2436 31.4474 12.8798 31.4474C11.516 31.4474 10.4104 32.655 10.4104 34.1445C10.4104 35.6341 11.516 36.8416 12.8798 36.8416Z" fill="#777777"/>
<path d="M49.7769 20.2226C52.1233 20.2226 54.0189 22.3042 54.0189 24.8558C54.0189 27.4074 52.113 29.489 49.7769 29.489C47.4407 29.489 45.5349 27.4074 45.5349 24.8558C45.5349 22.3042 47.4407 20.2226 49.7769 20.2226Z" fill="#777777"/>
<path d="M41.1493 22.1694C42.512 22.1694 43.6186 23.3781 43.6186 24.8665C43.6186 26.3549 42.512 27.5636 41.1493 27.5636C39.7865 27.5636 38.6799 26.3549 38.6799 24.8665C38.6799 23.3781 39.7865 22.1694 41.1493 22.1694Z" fill="#777777"/>
<path d="M10.9127 47.0826C9.25276 48.8956 9.25276 51.8276 10.9127 53.6406C12.5726 55.4536 15.2571 55.4536 16.917 53.6406C18.577 51.8276 18.577 48.8956 16.917 47.0826C15.2571 45.2696 12.5726 45.2696 10.9127 47.0826Z" fill="#777777"/>
<path d="M18.2797 41.7889C17.3165 42.8408 17.3165 44.5531 18.2797 45.6051C19.2428 46.657 20.8105 46.657 21.7737 45.6051C22.7368 44.5531 22.7368 42.8408 21.7737 41.7889C20.8105 40.7369 19.2428 40.7369 18.2797 41.7889Z" fill="#777777"/>
<path d="M24.2534 40.826C25.1362 40.826 25.8519 40.0444 25.8519 39.0802C25.8519 38.116 25.1362 37.3344 24.2534 37.3344C23.3707 37.3344 22.655 38.116 22.655 39.0802C22.655 40.0444 23.3707 40.826 24.2534 40.826Z" fill="#777777"/>
<path d="M37.1022 5.36107C38.7621 3.5481 41.4466 3.5481 43.1065 5.36107C44.7665 7.17405 44.7665 10.1061 43.1065 11.9191C41.4466 13.7321 38.7621 13.7321 37.1022 11.9191C35.4423 10.1061 35.4423 7.17405 37.1022 5.36107Z" fill="#777777"/>
<path d="M34.0077 18.0068C35.3715 18.0068 36.4771 16.7993 36.4771 15.3097C36.4771 13.8201 35.3715 12.6127 34.0077 12.6127C32.6439 12.6127 31.5383 13.8201 31.5383 15.3097C31.5383 16.7993 32.6439 18.0068 34.0077 18.0068Z" fill="#777777"/>
<path d="M29.776 21.667C30.6587 21.667 31.3744 20.8854 31.3744 19.9212C31.3744 18.957 30.6587 18.1753 29.776 18.1753C28.8932 18.1753 28.1775 18.957 28.1775 19.9212C28.1775 20.8854 28.8932 21.667 29.776 21.667Z" fill="#777777"/>
</svg>
