<svg width="38" height="38" viewBox="0 0 38 38" fill="none" xmlns="http://www.w3.org/2000/svg">
<path d="M21.2046 15.2366L19 17.2854L16.7953 15.2366H14.9378L15.5408 15.7914L19 18.9748L22.4592 15.7914L23.0621 15.2366H21.2046Z" fill="#00ABB1"/>
<path d="M22.7881 16.3019L19 19.8132L15.218 16.3019L14 16.283V22.7634H15.218V18.1805L19 21.6602L22.7881 18.1805V22.7634H24V16.283L22.7881 16.3019Z" fill="#00ABB1"/>
<path d="M18.9999 2.98408C18.9999 1.33347 17.6592 0 16.0158 0C14.3724 0 13.0318 1.34068 13.0318 2.98408C13.0318 4.62748 14.3724 5.96813 16.0158 5.96813C17.6592 5.96813 18.9999 4.62748 18.9999 2.98408Z" fill="#00ABB1"/>
<path d="M16.0161 10.7978C16.9754 10.7978 17.7532 10.02 17.7532 9.06065C17.7532 8.10128 16.9754 7.32355 16.0161 7.32355C15.0567 7.32355 14.279 8.10128 14.279 9.06065C14.279 10.02 15.0567 10.7978 16.0161 10.7978Z" fill="#00ABB1"/>
<path d="M16.016 14.3869C16.637 14.3869 17.1404 13.8835 17.1404 13.2625C17.1404 12.6415 16.637 12.1381 16.016 12.1381C15.395 12.1381 14.8916 12.6415 14.8916 13.2625C14.8916 13.8835 15.395 14.3869 16.016 14.3869Z" fill="#00ABB1"/>
<path d="M24.9755 35.0159C24.9755 36.6665 23.6348 38 21.9914 38C20.348 38 19.0074 36.6593 19.0074 35.0159C19.0074 33.3725 20.348 32.0319 21.9914 32.0319C23.6348 32.0319 24.9755 33.3725 24.9755 35.0159Z" fill="#00ABB1"/>
<path d="M23.7285 28.9471C23.7285 29.9058 22.95 30.6842 21.9914 30.6842C21.0327 30.6842 20.2542 29.9058 20.2542 28.9471C20.2542 27.9885 21.0327 27.21 21.9914 27.21C22.95 27.21 23.7285 27.9885 23.7285 28.9471Z" fill="#00ABB1"/>
<path d="M21.9913 25.8621C22.6123 25.8621 23.1157 25.3587 23.1157 24.7377C23.1157 24.1167 22.6123 23.6133 21.9913 23.6133C21.3703 23.6133 20.8668 24.1167 20.8668 24.7377C20.8668 25.3587 21.3703 25.8621 21.9913 25.8621Z" fill="#00ABB1"/>
<path d="M7.67638 7.6766C6.5087 6.50892 4.62022 6.50892 3.45254 7.6766C2.28487 8.84428 2.28487 10.7328 3.45254 11.9004C4.62022 13.0681 6.5087 13.0681 7.67638 11.9004C8.84406 10.7328 8.84406 8.84428 7.67638 7.6766Z" fill="#00ABB1"/>
<path d="M11.0855 12.8518C10.4079 12.1742 9.30513 12.1742 8.62759 12.8518C7.95005 13.5293 7.95005 14.6321 8.62759 15.3097C9.30513 15.9872 10.4079 15.9872 11.0855 15.3097C11.763 14.6321 11.763 13.5293 11.0855 12.8518Z" fill="#00ABB1"/>
<path d="M34.5545 26.1C35.7222 27.2677 35.7222 29.1562 34.5545 30.3238C33.3868 31.4915 31.4984 31.4915 30.3307 30.3238C29.163 29.1562 29.163 27.2677 30.3307 26.1C31.4984 24.9323 33.3868 24.9323 34.5545 26.1Z" fill="#00ABB1"/>
<path d="M29.3721 22.6906C30.0496 23.3681 30.0496 24.4709 29.3721 25.1485C28.6945 25.826 27.5917 25.826 26.9142 25.1485C26.2367 24.4709 26.2367 23.3681 26.9142 22.6906C27.5917 22.013 28.6945 22.013 29.3721 22.6906Z" fill="#00ABB1"/>
<path d="M2.98407 19.0003C1.33346 19.0003 -1.14441e-05 20.341 -1.14441e-05 21.9844C-1.14441e-05 23.6278 1.34067 24.9684 2.98407 24.9684C4.62746 24.9684 5.96812 23.6278 5.96812 21.9844C5.96812 20.341 4.62746 19.0003 2.98407 19.0003Z" fill="#00ABB1"/>
<path d="M9.06037 23.7285C10.0197 23.7285 10.7975 22.9508 10.7975 21.9914C10.7975 21.0321 10.0197 20.2543 9.06037 20.2543C8.10099 20.2543 7.32327 21.0321 7.32327 21.9914C7.32327 22.9508 8.10099 23.7285 9.06037 23.7285Z" fill="#00ABB1"/>
<path d="M35.0158 13.0248C36.6664 13.0248 37.9999 14.3654 37.9999 16.0088C37.9999 17.6522 36.6592 18.9929 35.0158 18.9929C33.3724 18.9929 32.0318 17.6522 32.0318 16.0088C32.0318 14.3654 33.3724 13.0248 35.0158 13.0248Z" fill="#00ABB1"/>
<path d="M28.9467 14.2786C29.9053 14.2786 30.6838 15.057 30.6838 16.0157C30.6838 16.9743 29.9053 17.7528 28.9467 17.7528C27.988 17.7528 27.2096 16.9743 27.2096 16.0157C27.2096 15.057 27.988 14.2786 28.9467 14.2786Z" fill="#00ABB1"/>
<path d="M7.67658 30.3244C6.5089 31.4921 6.5089 33.3806 7.67658 34.5482C8.84426 35.7159 10.7327 35.7159 11.9004 34.5482C13.0681 33.3806 13.0681 31.4921 11.9004 30.3244C10.7327 29.1567 8.84426 29.1567 7.67658 30.3244Z" fill="#00ABB1"/>
<path d="M12.8589 26.9148C12.1814 27.5924 12.1814 28.6952 12.8589 29.3727C13.5365 30.0503 14.6393 30.0503 15.3168 29.3727C15.9944 28.6952 15.9944 27.5924 15.3168 26.9148C14.6393 26.2373 13.5365 26.2373 12.8589 26.9148Z" fill="#00ABB1"/>
<path d="M17.0612 26.2948C17.6822 26.2948 18.1857 25.7913 18.1857 25.1703C18.1857 24.5493 17.6822 24.0459 17.0612 24.0459C16.4402 24.0459 15.9368 24.5493 15.9368 25.1703C15.9368 25.7913 16.4402 26.2948 17.0612 26.2948Z" fill="#00ABB1"/>
<path d="M26.0998 3.45285C27.2674 2.28517 29.1559 2.28517 30.3236 3.45285C31.4913 4.62052 31.4913 6.50898 30.3236 7.67666C29.1559 8.84434 27.2674 8.84434 26.0998 7.67666C24.9321 6.50898 24.9321 4.62052 26.0998 3.45285Z" fill="#00ABB1"/>
<path d="M23.9229 11.5976C24.8823 11.5976 25.66 10.8199 25.66 9.8605C25.66 8.90112 24.8823 8.12341 23.9229 8.12341C22.9636 8.12341 22.1858 8.90112 22.1858 9.8605C22.1858 10.8199 22.9636 11.5976 23.9229 11.5976Z" fill="#00ABB1"/>
<path d="M20.9461 13.955C21.5671 13.955 22.0705 13.4516 22.0705 12.8306C22.0705 12.2096 21.5671 11.7061 20.9461 11.7061C20.3251 11.7061 19.8216 12.2096 19.8216 12.8306C19.8216 13.4516 20.3251 13.955 20.9461 13.955Z" fill="#00ABB1"/>
</svg>
